<svg width="512" height="512" viewBox="0 0 512 512" xmlns="http://www.w3.org/2000/svg">
  <!-- Background rounded square -->
  <rect width="512" height="512" rx="110" fill="#0f1623"/>

  <!-- Envelope body -->
  <rect x="112" y="176" width="288" height="198" rx="14" fill="#1a2540"/>
  <rect x="112" y="176" width="288" height="198" rx="14" fill="none" stroke="#4e7aff" stroke-width="4"/>

  <!-- Envelope flap V -->
  <polygon points="112,176 256,296 400,176" fill="#131d35"/>
  <polyline points="112,176 256,296 400,176" fill="none" stroke="#4e7aff" stroke-width="4" stroke-linejoin="round"/>

  <!-- Bottom fold lines -->
  <line x1="112" y1="374" x2="210" y2="292" stroke="#2a3a5c" stroke-width="2.5"/>
  <line x1="400" y1="374" x2="302" y2="292" stroke="#2a3a5c" stroke-width="2.5"/>

  <!-- Lightning bolt / AI spark -->
  <path d="M268,220 L236,264 L256,264 L244,308 L284,264 L264,264 Z" fill="#4e7aff"/>

  <!-- Signal arcs top right -->
  <path d="M 368,110 A 72,72 0 0,1 434,176" fill="none" stroke="#4e7aff" stroke-width="5" stroke-linecap="round" opacity="0.5"/>
  <path d="M 380,86 A 104,104 0 0,1 462,182" fill="none" stroke="#4e7aff" stroke-width="4" stroke-linecap="round" opacity="0.3"/>
  <circle cx="434" cy="176" r="9" fill="#4e7aff" opacity="0.85"/>
</svg>
